# xmcd
#
# Track frame offsets: 
#        183
#        12370
#        25495
#        36995
#        53883
#        66408
#        77983
#        90883
#        104120
#        116758
#        128333
#        141433
#        155558
#        168370
#        181258
#        196670
#
# Disc length: 2787 seconds
#
# Revision: 1
# Processed by: cddbd v1.5.1PL2 Copyright (c) Steve Scherf et al.
# Submitted via: ExactAudioCopy v0.95b4
#
DISCID=da0ae110
DTITLE=Great Blues Performers - Blue Mood
DYEAR=1990
DGENRE=Blues
TTITLE0=John Lee Hooker - I'm In The Mood
TTITLE1=Muddy Waters - Mannish Boy
TTITLE2=Sonny Boy Williamson - Born Blind
TTITLE3=Mitty Collier - I Had A Talk With My Man
TTITLE4=Elmore James - I Need You
TTITLE5=Little Milton - Can't Hold Back The Tears
TTITLE6=Howlin' Wolf - Evil
TTITLE7=Muddy Waters - She Moves Me
TTITLE8=John Lee Hooker - Hobo Blues
TTITLE9=Etta James - Anything To Say You're Mine
TTITLE10=Elmore James - Dust My Broom
TTITLE11=Little Walter - Blues With A Feeling
TTITLE12=Lowell Fulson - Lonely Hours
TTITLE13=Sonny Boy Williamson - Like A Wolf
TTITLE14=Little Milton - Blind man
TTITLE15=Little Walter - Last Night
EXTD=
EXTT0=
EXTT1=
EXTT2=
EXTT3=
EXTT4=
EXTT5=
EXTT6=
EXTT7=
EXTT8=
EXTT9=
EXTT10=
EXTT11=
EXTT12=
EXTT13=
EXTT14=
EXTT15=
PLAYORDER=
